<svg xmlns="http://www.w3.org/2000/svg" viewBox="0 0 109.26 114.47"><defs><style>.cls-1{fill:#2dce89;}</style></defs><title>Ativo 1</title><g id="Camada_2" data-name="Camada 2"><g id="Camada_1-2" data-name="Camada 1"><g id="_9" data-name="9"><path class="cls-1" d="M81.46,40.55a23,23,0,0,1,2.32,10.11,3.45,3.45,0,0,0,3.45,3.45h0a3.45,3.45,0,0,0,3.45-3.45A30.15,30.15,0,0,0,76.52,25.12a30.21,30.21,0,0,0-15.58-4.57,3.45,3.45,0,0,0-.09,6.9A23.11,23.11,0,0,1,81.46,40.55Z"/><path class="cls-1" d="M101.49,30.86A45.47,45.47,0,0,0,60.92,5.19h0a3.45,3.45,0,0,0,0,6.9A38.6,38.6,0,0,1,99.14,50.67a3.45,3.45,0,0,0,3.45,3.45h0A3.45,3.45,0,0,0,106,50.67,45,45,0,0,0,101.49,30.86Z"/><path class="cls-1" d="M92.42,77.52a8.77,8.77,0,0,0-4.84-2.75,8.35,8.35,0,0,0-6.2,1.34l-9.31,6a.27.27,0,0,1-.26,0c-2.05-.9-8.5-4.65-22.54-19.71S31.89,40.65,31.15,38.57a.27.27,0,0,1,0-.26l6.63-8.89a8.4,8.4,0,0,0-.43-10.89L22.86,3A9.06,9.06,0,0,0,18,.15a8.68,8.68,0,0,0-8.39,3l-4.1,5A23.7,23.7,0,0,0,0,24.24C0,29.75,1.55,36,4.5,42.77,9.44,54.16,18.65,67.39,30.41,80c6.18,6.63,15.91,16.1,27.1,23.58C68.34,110.8,78,114.47,86.24,114.47a22.31,22.31,0,0,0,14-4.65l5.13-3.61a8.91,8.91,0,0,0,2.67-2.81,8.71,8.71,0,0,0-1.15-10.32Z"/></g></g></g></svg>